PathFileType  4	(X/Y/Z) C:\Users\antoi\Documents\MyRepositories\mobilecap\ResultsAnalysis
DataRate	CameraRate	NumFrames	NumMarkers	Units	OrigDataRate	OrigDataStartFrame	OrigNumFrames
100.0	100.0	4	51	mm	100.0	1	1139
Frame#	Time	r_knee			r_shank_antsup			r_ankle			r_calc			r_5meta			r_toe			L_knee			L_shank_antsup			L_ankle			L_calc			L_5meta			L_toe			r_sh2			r_sh3			r_sh4			L_sh2			L_sh3			r_thigh1			r_thigh2			r_thigh3			r_thigh4			r_thigh5			L_thigh1			L_thigh2			L_thigh3			L_thigh4			r.ASIS			r.PSIS			L.ASIS			L.PSIS			C7			R_Shoulder			L_Shoulder			R_Sternum			L_Sternum			R_humerus			R_elbow_med			R_elbow_lat			R_forearm			R_wrist_radius			R_wrist_ulna			L_humerus			L_elbow_med			L_elbow_lat			L_forearm			L_wrist_radius			L_wrist_ulna			R_HJC			L_HJC			R_HJC_reg			L_HJC_reg			
		X1	Y1	Z1	X2	Y2	Z2	X3	Y3	Z3	X4	Y4	Z4	X5	Y5	Z5	X6	Y6	Z6	X7	Y7	Z7	X8	Y8	Z8	X9	Y9	Z9	X10	Y10	Z10	X11	Y11	Z11	X12	Y12	Z12	X13	Y13	Z13	X14	Y14	Z14	X15	Y15	Z15	X16	Y16	Z16	X17	Y17	Z17	X18	Y18	Z18	X19	Y19	Z19	X20	Y20	Z20	X21	Y21	Z21	X22	Y22	Z22	X23	Y23	Z23	X24	Y24	Z24	X25	Y25	Z25	X26	Y26	Z26	X27	Y27	Z27	X28	Y28	Z28	X29	Y29	Z29	X30	Y30	Z30	X31	Y31	Z31	X32	Y32	Z32	X33	Y33	Z33	X34	Y34	Z34	X35	Y35	Z35	X36	Y36	Z36	X37	Y37	Z37	X38	Y38	Z38	X39	Y39	Z39	X40	Y40	Z40	X41	Y41	Z41	X42	Y42	Z42	X43	Y43	Z43	X44	Y44	Z44	X45	Y45	Z45	X46	Y46	Z46	X47	Y47	Z47	X48	Y48	Z48	X49	Y49	Z49	X50	Y50	Z50	X51	Y51	Z51	

1	0.00000000	-267.25405	589.53199	-327.41784	-210.88463	459.04909	-313.06867	-307.28079	104.96193	-304.31934	-362.16890	73.93325	-370.98263	-175.32862	44.15292	-264.14564	-133.41275	71.53250	-312.45194	-294.84110	583.72480	-929.79427	-220.72676	407.85479	-934.56688	-322.06846	113.25163	-939.58306	-377.25341	76.90324	-878.39394	-184.07500	35.66194	-982.08966	-140.47868	68.51172	-927.47375	-223.54046	345.46950	-314.79058	-280.08269	463.29382	-284.95206	-294.32885	352.48548	-273.93719	-294.80343	424.19201	-979.02439	-310.40801	305.84672	-968.77668	-547.18251	651.74715	-372.03790	-439.04121	662.94029	-345.59981	-417.53076	598.47718	-328.49030	-542.63989	542.02683	-381.18746	-427.23294	546.83684	-351.64634	-562.83326	674.80826	-839.81228	-435.30005	672.03293	-884.18479	-580.90322	569.50086	-865.63814	-450.52835	568.18326	-914.88059	-651.06425	716.80623	-478.83636	-838.18722	697.56123	-563.47531	-657.29266	707.38786	-746.73430	-839.18073	698.16348	-654.06697	-742.36852	1193.18828	-627.86624	-663.03714	1152.25803	-454.12319	-687.64712	1162.61205	-800.64188	-601.48494	1107.75335	-601.11977	-602.01014	1108.82754	-649.94102	-663.64876	897.14189	-358.26029	-745.87552	762.84460	-371.71005	-724.02770	799.54837	-295.87332	-530.70268	818.51673	-383.20506	-453.45718	831.70720	-431.70236	-446.84591	805.70334	-403.47360	-663.21766	883.25078	-875.57080	-752.12438	782.84416	-855.83790	-703.84713	799.27515	-925.51948	-520.12877	818.92545	-834.32181	-460.07560	835.86665	-788.23877	-458.03574	807.65638	-809.97882	-701.91022	604.15891	-510.62187	-711.76424	600.33899	-707.81533	-697.48122	614.88430	-517.16401	-699.42187	616.06067	-694.11908	
2	0.01000000	-267.29403	589.48953	-327.92252	-210.86742	459.03303	-313.36714	-307.25980	105.06252	-304.30081	-362.16794	73.93002	-370.99817	-175.33584	44.20180	-264.14398	-133.46351	71.44099	-312.52746	-294.78765	583.73248	-929.51680	-220.65871	407.85278	-934.39154	-322.03268	113.25738	-939.61765	-377.24447	76.86703	-878.40224	-184.07756	35.64460	-982.08055	-140.54990	68.42325	-927.37537	-223.55153	345.53206	-315.07434	-279.96451	463.39812	-285.29811	-294.44905	352.37559	-274.10004	-294.72592	424.16301	-978.83852	-310.28153	305.93251	-968.57094	-547.25174	651.68761	-372.20458	-439.02744	662.84875	-345.76188	-417.59245	598.56934	-328.70438	-542.79984	542.11375	-381.26640	-427.26856	546.73577	-352.08016	-562.03675	675.05559	-840.71058	-435.29699	672.02556	-883.96338	-580.91171	569.52205	-865.57968	-450.51602	568.16548	-914.75659	-649.57587	716.96274	-478.83767	-837.96533	698.13280	-563.64031	-656.89426	707.45145	-746.55689	-838.88271	698.74383	-654.03491	-737.23590	1193.00113	-627.93780	-658.21424	1151.70278	-454.33530	-682.96581	1161.84755	-800.77858	-597.07088	1106.43116	-601.27411	-597.69891	1107.39676	-650.02638	-660.05941	897.06998	-357.39327	-742.34756	762.68148	-370.49105	-720.65992	799.96085	-294.63809	-527.59120	819.49920	-381.90823	-450.34262	832.90461	-430.38837	-443.52034	806.91846	-402.32041	-659.33206	882.75876	-876.01336	-748.23341	782.35536	-856.44423	-700.02402	798.83625	-926.19611	-516.41854	819.39329	-835.39218	-456.31803	836.56060	-789.09642	-454.19284	808.41178	-810.78151	-701.45175	604.39673	-510.65305	-711.60670	600.56000	-707.83092	-697.05239	615.14011	-517.16536	-698.84724	616.33568	-694.02471	
3	0.02000000	-267.30362	589.46888	-328.35281	-210.87090	459.06090	-313.67115	-307.26109	105.07539	-304.31356	-362.17014	73.92350	-371.00118	-175.29830	44.20641	-264.19814	-133.45615	71.41624	-312.55849	-294.69668	583.70029	-929.19689	-220.57836	407.87242	-934.21411	-322.01467	113.24259	-939.59237	-377.23716	76.84605	-878.43718	-184.06842	35.64638	-982.08443	-140.56337	68.39198	-927.35010	-223.55194	345.59233	-315.39967	-279.91913	463.40765	-285.61959	-294.34133	352.50045	-274.27289	-294.61644	424.14546	-978.63567	-310.22627	305.93532	-968.43421	-547.29381	651.74202	-372.28201	-439.03121	662.81825	-345.95944	-417.64585	598.59834	-328.91355	-542.88964	542.18898	-381.34890	-427.30099	546.70504	-352.41986	-561.72502	675.19423	-841.12004	-435.29657	672.05636	-883.75366	-580.93394	569.56409	-865.52579	-450.49773	568.14953	-914.58951	-648.58049	716.87796	-478.84553	-837.53815	698.74180	-563.66693	-656.54714	707.23852	-746.68328	-838.51048	699.31835	-654.04306	-731.80649	1192.75850	-628.13724	-653.12749	1150.99736	-454.62647	-678.08891	1161.02416	-800.73285	-592.49082	1104.93274	-601.42122	-593.09602	1105.60941	-650.43432	-656.30207	896.86365	-356.67359	-738.83505	762.63204	-369.38452	-717.27637	800.29344	-293.38533	-524.31635	820.43416	-380.66467	-447.11501	834.12233	-429.09417	-440.19421	808.20005	-400.97833	-655.32277	882.21005	-876.54197	-744.24951	781.78125	-857.07953	-696.06183	798.39231	-926.99127	-512.61637	819.70354	-836.06954	-452.58817	837.28229	-789.93469	-450.37589	809.11773	-811.46371	-701.20899	604.48569	-510.69955	-711.62317	600.59367	-707.86282	-696.76684	615.16491	-517.11646	-698.67068	616.29376	-694.06774	
4	0.03000000	-267.27984	589.45675	-328.76380	-210.85429	459.11941	-313.98437	-307.25571	105.10350	-304.32684	-362.17095	73.92611	-370.99115	-175.24245	44.23006	-264.28882	-133.41327	71.43334	-312.55506	-294.58708	583.67579	-928.86802	-220.49219	407.90054	-934.00265	-322.01345	113.23775	-939.55144	-377.23918	76.81176	-878.43534	-184.05470	35.66625	-982.08881	-140.52741	68.42035	-927.38735	-223.56165	345.64140	-315.70928	-279.90671	463.41052	-285.84265	-294.20245	352.67957	-274.40408	-294.48994	424.14196	-978.41137	-310.21249	305.92615	-968.31470	-547.29496	651.84978	-372.27845	-439.04803	662.89921	-346.16562	-417.65326	598.60054	-329.12106	-542.90826	542.29014	-381.42144	-427.33449	546.71220	-352.68255	-561.72348	675.26281	-841.06241	-435.27434	672.11054	-883.53584	-580.95148	569.63637	-865.47042	-450.45052	568.14960	-914.41145	-648.00946	716.48912	-478.70140	-837.08036	699.41704	-563.69422	-656.07870	706.64467	-746.80374	-838.06724	699.91296	-654.12332	-725.98918	1192.46099	-628.25870	-647.69762	1150.18258	-454.92946	-672.88832	1160.12728	-800.61304	-587.57307	1103.28530	-601.65794	-588.14316	1103.71735	-650.87384	-652.36569	896.54806	-356.06724	-735.29115	762.54102	-368.23823	-713.85961	800.39266	-292.19826	-520.85553	821.29778	-379.47575	-443.76382	835.28728	-427.79191	-436.80403	809.42265	-399.57539	-651.11588	881.65080	-877.12393	-740.06512	781.07163	-857.79860	-691.95717	797.91696	-927.80849	-508.67785	819.90978	-836.52387	-448.86589	838.09588	-790.76317	-446.47512	809.76789	-812.14351	-701.34757	604.38341	-510.62537	-711.76463	600.37690	-707.78590	-696.80309	614.95266	-516.91429	-698.73599	615.92390	-694.04751	
